<?xml version="1.0" encoding="UTF-8" standalone="no"?>
<!-- Created with Inkscape (http://www.inkscape.org/) -->
<!DOCTYPE svg PUBLIC "-//W3C//DTD SVG 1.1//EN" "http://www.w3.org/Graphics/SVG/1.1/DTD/svg11.dtd">

<svg version="1.1" xmlns="http://www.w3.org/2000/svg" xmlns:xlink="http://www.w3.org/1999/xlink" width="16" height="16" viewBox="0 0 16 16">
<path d="m 12.19,10.92 c 0,1.32 -0.35,2.32 -1.06,3.01 -0.71,0.68 -1.72,1.03 -3.04,1.03 -1.07,0 -1.94,-0.25 -2.61,-0.76 C 4.74,13.63 4.36,12.82 4.33,11.77 l 0.38,0 c 0.04,0.93 0.38,1.64 1.03,2.13 0.59,0.44 1.36,0.66 2.32,0.66 2.49,0 3.74,-1.22 3.74,-3.65 l 0,-3.05 -0.04,0 C 11.58,8.72 11.11,9.41 10.36,9.93 9.61,10.44 8.79,10.70 7.90,10.70 6.58,10.70 5.55,10.22 4.81,9.25 4.13,8.37 3.80,7.24 3.80,5.87 3.80,4.47 4.15,3.32 4.85,2.42 5.63,1.43 6.69,0.94 8.03,0.94 c 0.88,0 1.67,0.27 2.38,0.81 0.70,0.54 1.16,1.24 1.36,2.10 l 0.04,0 0,-2.68 0.38,0 z M 11.79,5.87 C 11.79,4.64 11.47,3.60 10.85,2.75 10.15,1.80 9.21,1.33 8.03,1.33 6.81,1.33 5.84,1.79 5.14,2.71 4.50,3.53 4.18,4.59 4.18,5.87 c 0,1.25 0.30,2.28 0.90,3.09 0.68,0.91 1.61,1.36 2.80,1.36 1.21,0 2.18,-0.44 2.91,-1.32 0.66,-0.83 1.00,-1.87 1.0,-3.13 z"/>
</svg>
