<?xml version="1.0" encoding="UTF-8" standalone="no"?>
<svg
   xmlns:dc="http://purl.org/dc/elements/1.1/"
   xmlns:cc="http://creativecommons.org/ns#"
   xmlns:rdf="http://www.w3.org/1999/02/22-rdf-syntax-ns#"
   xmlns:svg="http://www.w3.org/2000/svg"
   xmlns="http://www.w3.org/2000/svg"
   version="1.1"
   id="svg2"
   viewBox="0 0 744.09448819 1052.3622047"
   height="297mm"
   width="210mm">
  <defs
     id="defs4" />
  <metadata
     id="metadata7">
    <rdf:RDF>
      <cc:Work
         rdf:about="">
        <dc:format>image/svg+xml</dc:format>
        <dc:type
           rdf:resource="http://purl.org/dc/dcmitype/StillImage" />
        <dc:title></dc:title>
      </cc:Work>
    </rdf:RDF>
  </metadata>
  <g
     id="layer1">
    <g
       id="g4351">
      <path
         style="fill:#000000;stroke-width:0.3"
         d="M 61.212891 30.019531 C 43.852517 30.435757 30 44.535903 30 62 L 30 95.416016 L 30.466797 95.416016 L 76.767578 30.019531 L 61.212891 30.019531 z "
         id="rect5537" />
      <rect
         id="rect6424"
         width="53.131592"
         height="80.126205"
         x="97.664032"
         y="-116.90798"
         transform="matrix(1,0,0.57783301,-0.81615502,0,0)"
         style="fill:#ffff00;stroke-width:0.3" />
      <rect
         id="rect6426"
         width="53.131592"
         height="80.126205"
         x="150.79237"
         y="-116.90798"
         transform="matrix(1,0,0.57783301,-0.81615502,0,0)"
         style="fill:#000000;stroke-width:0.3" />
      <rect
         id="rect6428"
         width="53.131592"
         height="80.126205"
         x="203.78802"
         y="-116.90803"
         transform="matrix(1,0,0.57783301,-0.81615502,0,0)"
         style="fill:#ffff00;stroke-width:0.3" />
      <rect
         id="rect6430"
         width="53.131592"
         height="80.126205"
         x="256.92181"
         y="-116.90289"
         transform="matrix(1,0,0.57783301,-0.81615502,0,0)"
         style="fill:#000000;stroke-width:0.3" />
      <rect
         id="rect6432"
         width="53.131592"
         height="80.126205"
         x="309.888"
         y="-116.87698"
         transform="matrix(1,0,0.57783301,-0.81615502,0,0)"
         style="fill:#ffff00;stroke-width:0.3" />
      <rect
         id="rect6434"
         width="53.131592"
         height="80.126205"
         x="363.06042"
         y="-116.87"
         transform="matrix(1,0,0.57783301,-0.81615502,0,0)"
         style="fill:#000000;stroke-width:0.3" />
      <rect
         id="rect6436"
         width="53.131592"
         height="80.126205"
         x="415.83508"
         y="-116.86964"
         transform="matrix(1,0,0.57783301,-0.81615502,0,0)"
         style="fill:#ffff00;stroke-width:0.3" />
      <rect
         id="rect6438"
         width="53.131592"
         height="80.126205"
         x="468.96341"
         y="-116.86964"
         transform="matrix(1,0,0.57783301,-0.81615502,0,0)"
         style="fill:#000000;stroke-width:0.3" />
      <rect
         id="rect6440"
         width="53.131592"
         height="80.126205"
         x="521.95911"
         y="-116.86967"
         transform="matrix(1,0,0.57783301,-0.81615502,0,0)"
         style="fill:#ffff00;stroke-width:0.3" />
      <rect
         id="rect6442"
         width="53.131592"
         height="80.126205"
         x="575.0929"
         y="-116.86455"
         transform="matrix(1,0,0.57783301,-0.81615502,0,0)"
         style="fill:#000000;stroke-width:0.3" />
      <rect
         id="rect6444"
         width="53.131592"
         height="80.126205"
         x="628.05908"
         y="-116.83864"
         transform="matrix(1,0,0.57783301,-0.81615502,0,0)"
         style="fill:#ffff00;stroke-width:0.3" />
      <path
         style="fill:#000000;stroke-width:0.3"
         d="M 660.03711 30 L 613.74609 95.384766 L 666.87695 95.384766 L 703.87305 43.130859 C 698.0637 35.162815 688.65914 30 678 30 L 660.03711 30 z "
         id="rect6446" />
      <path
         style="fill:#ffff00;stroke-width:0.3"
         d="M 703.69336 42.878906 L 666.52148 95.382812 L 710 95.382812 L 710 62 C 710 54.819672 707.65727 48.206685 703.69336 42.878906 z "
         id="rect6448" />
      <path
         style="fill:#000000;stroke-width:0.3"
         d="M 666.0918 184.50195 L 703.51172 237.35547 C 707.58365 231.98734 710 225.28736 710 218 L 710 184.50195 L 666.0918 184.50195 z "
         id="rect4189" />
      <path
         style="fill:#ffff00;stroke-width:0.3"
         d="M 613.31641 184.50195 L 659.61719 249.89648 L 680.48047 249.89648 C 690.00388 249.17231 698.33591 244.32338 703.69727 237.11328 L 666.44922 184.50195 L 613.31641 184.50195 z "
         id="rect4191" />
      <rect
         style="fill:#000000;stroke-width:0.3"
         transform="matrix(-1,0,-0.57783301,-0.81615502,0,0)"
         y="-306.18839"
         x="-482.6944"
         height="80.126205"
         width="53.131592"
         id="rect4193" />
      <rect
         style="fill:#ffff00;stroke-width:0.3"
         transform="matrix(-1,0,-0.57783301,-0.81615502,0,0)"
         y="-306.18842"
         x="-429.69876"
         height="80.126205"
         width="53.131592"
         id="rect4195" />
      <rect
         style="fill:#000000;stroke-width:0.3"
         transform="matrix(-1,0,-0.57783301,-0.81615502,0,0)"
         y="-306.18329"
         x="-376.56497"
         height="80.126205"
         width="53.131592"
         id="rect4197" />
      <rect
         style="fill:#ffff00;stroke-width:0.3"
         transform="matrix(-1,0,-0.57783301,-0.81615502,0,0)"
         y="-306.15738"
         x="-323.59879"
         height="80.126205"
         width="53.131592"
         id="rect4199" />
      <rect
         style="fill:#000000;stroke-width:0.3"
         transform="matrix(-1,0,-0.57783301,-0.81615502,0,0)"
         y="-306.15039"
         x="-270.42636"
         height="80.126205"
         width="53.131592"
         id="rect4201" />
      <rect
         style="fill:#ffff00;stroke-width:0.3"
         transform="matrix(-1,0,-0.57783301,-0.81615502,0,0)"
         y="-306.15002"
         x="-217.65169"
         height="80.126205"
         width="53.131592"
         id="rect4203" />
      <rect
         style="fill:#000000;stroke-width:0.3"
         transform="matrix(-1,0,-0.57783301,-0.81615502,0,0)"
         y="-306.15002"
         x="-164.52336"
         height="80.126205"
         width="53.131592"
         id="rect4205" />
      <rect
         style="fill:#ffff00;stroke-width:0.3"
         transform="matrix(-1,0,-0.57783301,-0.81615502,0,0)"
         y="-306.15005"
         x="-111.52771"
         height="80.126205"
         width="53.131592"
         id="rect4207" />
      <rect
         style="fill:#000000;stroke-width:0.3"
         transform="matrix(-1,0,-0.57783301,-0.81615502,0,0)"
         y="-306.14493"
         x="-58.393929"
         height="80.126205"
         width="53.131592"
         id="rect4209" />
      <rect
         style="fill:#ffff00;stroke-width:0.3"
         transform="matrix(-1,0,-0.57783301,-0.81615502,0,0)"
         y="-306.11902"
         x="-5.4277191"
         height="80.126205"
         width="53.131592"
         id="rect4211" />
      <rect
         style="fill:#000000;stroke-width:0.3"
         transform="matrix(-1,0,-0.57783301,-0.81615502,0,0)"
         y="-306.15039"
         x="47.79044"
         height="80.126205"
         width="53.131592"
         id="rect4213" />
      <path
         style="fill:#ffff00;stroke-width:0.3"
         d="M 30 184.4707 L 30 218 C 30 234.75219 42.74572 248.41152 59.107422 249.86523 L 76.337891 249.86523 L 30.039062 184.4707 L 30 184.4707 z "
         id="rect4215" />
      <rect
         style="fill:none;fill-opacity:1;stroke:#000000;stroke-width:1"
         id="rect4136"
         width="680"
         height="220"
         x="30"
         y="30"
         rx="32"
         ry="32" />
      <rect
         ry="32"
         rx="32"
         y="30"
         x="30"
         height="220"
         width="680"
         id="rect4332"
         style="fill:none;fill-opacity:1;stroke:#000000;stroke-width:1" />
      <path
         style="fill:none;stroke:#000000;stroke-width:1px"
         d="m 29.285714,95.576489 680.357146,0"
         id="path4347" />
      <path
         id="path4349"
         d="m 29.285714,184.50506 680.357146,0"
         style="fill:none;stroke:#000000;stroke-width:1px" />
    </g>
    <g
       id="text4385"
       style="font-style:normal;font-variant:normal;font-weight:normal;font-stretch:normal;font-size:60px;line-height:125%;font-family:'Arial Rounded MT Bold';-inkscape-font-specification:'Arial Rounded MT Bold, Normal';text-align:start;letter-spacing:0px;word-spacing:0px;writing-mode:lr-tb;text-anchor:start;fill:#000000;fill-opacity:1;stroke:none;stroke-width:1px">
      <path
         id="path4422"
         d="m 80.097656,154.88033 -6.943359,-25.75196 -7.03125,25.75196 q -0.820313,2.92968 -1.31836,4.21875 -0.46875,1.25976 -1.669921,2.28515 -1.201172,0.9961 -3.19336,0.9961 -1.611328,0 -2.666015,-0.61524 -1.025391,-0.58594 -1.669922,-1.66992 -0.644532,-1.11328 -1.054688,-2.60742 -0.410156,-1.52344 -0.732422,-2.8125 l -7.148437,-28.91602 q -0.644531,-2.51953 -0.644531,-3.83789 0,-1.66992 1.171875,-2.8125 1.171875,-1.14258 2.90039,-1.14258 2.373047,0 3.19336,1.52344 0.820312,1.52344 1.435546,4.42383 l 5.625,25.07812 6.298829,-23.46679 q 0.703125,-2.69532 1.259765,-4.10157 0.556641,-1.40625 1.816406,-2.43164 1.259766,-1.02539 3.427735,-1.02539 2.197265,0 3.398437,1.08399 1.230469,1.05468 1.699219,2.31445 0.46875,1.25977 1.259766,4.16016 l 6.357422,23.46679 5.625,-25.07812 q 0.410156,-1.96289 0.761718,-3.07617 0.38086,-1.11328 1.259766,-1.99219 0.908203,-0.87891 2.607422,-0.87891 1.699219,0 2.871094,1.14258 1.201169,1.11328 1.201169,2.8125 0,1.20117 -0.644529,3.83789 l -7.148437,28.91602 q -0.732422,2.92968 -1.230469,4.30664 -0.46875,1.34765 -1.640625,2.37304 -1.142578,1.0254 -3.251953,1.0254 -1.992188,0 -3.19336,-0.9961 -1.201171,-0.99609 -1.669921,-2.22656 -0.46875,-1.25977 -1.31836,-4.27734 z" />
      <path
         id="path4424"
         d="m 125.53711,117.96626 q 6.67969,0 11.45508,2.72461 4.80468,2.69531 7.26562,7.70508 2.46094,4.98047 2.46094,11.71875 0,4.98047 -1.34766,9.05273 -1.34765,4.07227 -4.04297,7.06055 -2.69531,2.98828 -6.62109,4.57031 -3.92578,1.58204 -8.99414,1.58204 -5.03906,0 -9.02344,-1.61133 -3.98437,-1.64063 -6.65039,-4.59961 -2.66601,-2.95899 -4.04297,-7.11914 -1.34765,-4.16016 -1.34765,-8.99414 0,-4.95118 1.40625,-9.08203 1.43554,-4.13086 4.13086,-7.03125 2.69531,-2.9004 6.5625,-4.42383 3.86718,-1.55274 8.78906,-1.55274 z m 12.36328,22.08985 q 0,-4.7168 -1.52344,-8.17383 -1.52343,-3.45703 -4.36523,-5.21485 -2.8125,-1.7871 -6.47461,-1.7871 -2.60742,0 -4.83398,0.99609 -2.19727,0.9668 -3.8086,2.8418 -1.58203,1.875 -2.51953,4.80468 -0.9082,2.90039 -0.9082,6.53321 0,3.66211 0.9082,6.62109 0.9375,2.95898 2.60742,4.92188 1.69922,1.93359 3.86719,2.90039 2.19727,0.96679 4.80469,0.96679 3.33984,0 6.12304,-1.66992 2.8125,-1.66992 4.45313,-5.15625 1.66992,-3.48633 1.66992,-8.58398 z" />
      <path
         id="path4426"
         d="m 165.9082,143.27876 -3.04687,0 0,13.79883 q 0,2.72461 -1.20117,4.01367 -1.20118,1.28907 -3.13477,1.28907 -2.08008,0 -3.22266,-1.34766 -1.14257,-1.34766 -1.14257,-3.95508 l 0,-33.04687 q 0,-2.8125 1.25976,-4.07227 1.25977,-1.25977 4.07227,-1.25977 l 14.15039,0 q 2.92969,0 5.00976,0.26368 2.08008,0.23437 3.75,0.99609 2.02149,0.84961 3.57422,2.43164 1.55274,1.58203 2.34375,3.69141 0.82031,2.08008 0.82031,4.42383 0,4.80468 -2.7246,7.67578 -2.69532,2.87109 -8.20313,4.07226 2.31445,1.23047 4.42383,3.63281 2.10937,2.40235 3.75,5.12696 1.66992,2.69531 2.57812,4.89258 0.9375,2.16796 0.9375,2.98828 0,0.84961 -0.55664,1.69922 -0.52734,0.82031 -1.46484,1.28906 -0.9375,0.49805 -2.16797,0.49805 -1.46484,0 -2.46094,-0.70313 -0.99609,-0.67383 -1.72851,-1.72852 -0.70313,-1.05468 -1.9336,-3.10546 l -3.48632,-5.80079 q -1.875,-3.19335 -3.36915,-4.86328 -1.46484,-1.66992 -2.98828,-2.28515 -1.52343,-0.61524 -3.83789,-0.61524 z m 4.98047,-18.04687 -8.02734,0 0,11.80664 7.79297,0 q 3.13476,0 5.27343,-0.52735 2.13868,-0.55664 3.25196,-1.8457 1.14258,-1.31836 1.14258,-3.60351 0,-1.78711 -0.90821,-3.13477 -0.9082,-1.37695 -2.51953,-2.05078 -1.52344,-0.64453 -6.00586,-0.64453 z" />
      <path
         id="path4428"
         d="m 206.10352,123.2397 0,15.05859 17.08007,-17.8125 q 1.23047,-1.28906 2.08008,-1.90429 0.87891,-0.61524 2.31445,-0.61524 1.875,0 3.01758,1.11328 1.17188,1.08399 1.17188,2.66602 0,1.9043 -1.96289,3.7793 l -10.57617,10.01953 12.1875,17.46094 q 1.28906,1.8164 1.93359,3.19335 0.64453,1.34766 0.64453,2.63672 0,1.43555 -1.14258,2.49024 -1.11328,1.05469 -3.04687,1.05469 -1.81641,0 -2.95899,-0.76172 -1.14258,-0.79102 -1.93359,-2.08008 -0.79102,-1.28906 -1.40625,-2.34375 l -10.2832,-15.82031 -7.11914,6.82617 0,8.87695 q 0,2.69531 -1.23047,4.01367 -1.23047,1.28907 -3.16407,1.28907 -1.11328,0 -2.13867,-0.58594 -1.02539,-0.58594 -1.58203,-1.58203 -0.41016,-0.82032 -0.49805,-1.9043 -0.0879,-1.08398 -0.0879,-3.13477 l 0,-31.93359 q 0,-2.63672 1.14258,-3.95508 1.17188,-1.31836 3.16406,-1.31836 1.96289,0 3.16407,1.31836 1.23047,1.28906 1.23047,3.95508 z" />
    </g>
    <g
       id="text4389"
       style="font-style:normal;font-variant:normal;font-weight:normal;font-stretch:normal;font-size:60px;line-height:125%;font-family:'Arial Rounded MT Bold';-inkscape-font-specification:'Arial Rounded MT Bold, Normal';text-align:start;letter-spacing:0px;word-spacing:0px;writing-mode:lr-tb;text-anchor:start;fill:#000000;fill-opacity:1;stroke:none;stroke-width:1px">
      <path
         id="path4417"
         d="m 281.27176,134.40182 0,23.11524 q 0,2.40234 -1.14258,3.63281 -1.14258,1.23047 -2.90039,1.23047 -1.75781,0 -2.87109,-1.25977 -1.08399,-1.25976 -1.08399,-3.60351 l 0,-22.88086 q 0,-2.37305 1.08399,-3.57422 1.11328,-1.20117 2.87109,-1.20117 1.75781,0 2.90039,1.20117 1.14258,1.20117 1.14258,3.33984 z m -3.95508,-8.26171 q -1.66992,0 -2.87109,-1.02539 -1.17188,-1.0254 -1.17188,-2.9004 0,-1.69921 1.20117,-2.7832 1.23047,-1.11328 2.8418,-1.11328 1.55274,0 2.75391,0.99609 1.20117,0.9961 1.20117,2.90039 0,1.84571 -1.17188,2.9004 -1.17187,1.02539 -2.7832,1.02539 z" />
      <path
         id="path4419"
         d="m 296.8284,134.28464 0,0.96679 q 2.10937,-2.7832 4.59961,-4.07226 2.51953,-1.31836 5.77148,-1.31836 3.16407,0 5.6543,1.37695 2.49023,1.37696 3.7207,3.89649 0.79102,1.46484 1.02539,3.16406 0.23438,1.69922 0.23438,4.33594 l 0,14.88281 q 0,2.40234 -1.11328,3.63281 -1.08399,1.23047 -2.8418,1.23047 -1.78711,0 -2.90039,-1.25977 -1.11328,-1.25976 -1.11328,-3.60351 l 0,-13.33008 q 0,-3.95508 -1.11328,-6.03516 -1.08399,-2.10937 -4.36524,-2.10937 -2.13867,0 -3.89648,1.28906 -1.75781,1.25977 -2.57813,3.48633 -0.58593,1.78711 -0.58593,6.67969 l 0,10.01953 q 0,2.43164 -1.14258,3.66211 -1.11328,1.20117 -2.90039,1.20117 -1.72852,0 -2.8418,-1.25977 -1.11328,-1.25976 -1.11328,-3.60351 l 0,-23.11524 q 0,-2.28515 0.99609,-3.39843 0.9961,-1.14258 2.72461,-1.14258 1.05469,0 1.9043,0.49805 0.84961,0.49804 1.34766,1.49414 0.52734,0.99609 0.52734,2.43164 z" />
    </g>
    <g
       id="text4393"
       style="font-style:normal;font-variant:normal;font-weight:normal;font-stretch:normal;font-size:60px;line-height:125%;font-family:'Arial Rounded MT Bold';-inkscape-font-specification:'Arial Rounded MT Bold, Normal';text-align:start;letter-spacing:0px;word-spacing:0px;writing-mode:lr-tb;text-anchor:start;fill:#000000;fill-opacity:1;stroke:none;stroke-width:1px">
      <path
         id="path4400"
         d="m 376.35742,144.9194 -7.96875,0 0,12.15821 q 0,2.60742 -1.23047,3.95507 -1.23047,1.34766 -3.10547,1.34766 -1.96289,0 -3.16406,-1.31836 -1.20117,-1.34766 -1.20117,-3.92578 l 0,-33.10547 q 0,-2.87109 1.31836,-4.10156 1.31836,-1.23047 4.18945,-1.23047 l 11.16211,0 q 4.95117,0 7.61719,0.76172 2.63672,0.73242 4.54101,2.43164 1.9336,1.69922 2.92969,4.16016 0.9961,2.46093 0.9961,5.5371 0,6.5625 -4.04297,9.96094 -4.04297,3.36914 -12.04102,3.36914 z m -2.10937,-19.6875 -5.85938,0 0,13.125 5.85938,0 q 3.07617,0 5.12695,-0.64453 2.08008,-0.64453 3.16406,-2.10937 1.08399,-1.46485 1.08399,-3.83789 0,-2.8418 -1.66993,-4.62891 -1.875,-1.9043 -7.70507,-1.9043 z" />
      <path
         id="path4402"
         d="m 411.45508,143.27878 -3.04688,0 0,13.79883 q 0,2.72461 -1.20117,4.01367 -1.20117,1.28906 -3.13476,1.28906 -2.08008,0 -3.22266,-1.34766 -1.14258,-1.34765 -1.14258,-3.95507 l 0,-33.04688 q 0,-2.8125 1.25977,-4.07226 1.25976,-1.25977 4.07226,-1.25977 l 14.15039,0 q 2.92969,0 5.00977,0.26367 2.08008,0.23438 3.75,0.9961 2.02148,0.8496 3.57422,2.43164 1.55273,1.58203 2.34375,3.6914 0.82031,2.08008 0.82031,4.42383 0,4.80469 -2.72461,7.67578 -2.69531,2.8711 -8.20312,4.07227 2.31445,1.23047 4.42382,3.63281 2.10938,2.40234 3.75,5.12695 1.66993,2.69532 2.57813,4.89258 0.9375,2.16797 0.9375,2.98828 0,0.84961 -0.55664,1.69922 -0.52735,0.82031 -1.46485,1.28906 -0.9375,0.49805 -2.16796,0.49805 -1.46485,0 -2.46094,-0.70312 -0.9961,-0.67383 -1.72852,-1.72852 -0.70312,-1.05469 -1.93359,-3.10547 l -3.48633,-5.80078 q -1.875,-3.19336 -3.36914,-4.86328 -1.46484,-1.66992 -2.98828,-2.28516 -1.52344,-0.61523 -3.83789,-0.61523 z m 4.98047,-18.04688 -8.02735,0 0,11.80664 7.79297,0 q 3.13477,0 5.27344,-0.52734 2.13867,-0.55664 3.25195,-1.8457 1.14258,-1.31836 1.14258,-3.60352 0,-1.78711 -0.9082,-3.13476 -0.90821,-1.37696 -2.51953,-2.05079 -1.52344,-0.64453 -6.00586,-0.64453 z" />
      <path
         id="path4404"
         d="m 461.78711,117.96628 q 6.67969,0 11.45508,2.72461 4.80468,2.69531 7.26562,7.70508 2.46094,4.98046 2.46094,11.71875 0,4.98046 -1.34766,9.05273 -1.34765,4.07227 -4.04297,7.06055 -2.69531,2.98828 -6.62109,4.57031 -3.92578,1.58203 -8.99414,1.58203 -5.03906,0 -9.02344,-1.61133 -3.98437,-1.64062 -6.65039,-4.59961 -2.66601,-2.95898 -4.04297,-7.11914 -1.34765,-4.16015 -1.34765,-8.99414 0,-4.95117 1.40625,-9.08203 1.43554,-4.13086 4.13086,-7.03125 2.69531,-2.90039 6.5625,-4.42383 3.86718,-1.55273 8.78906,-1.55273 z m 12.36328,22.08984 q 0,-4.7168 -1.52344,-8.17383 -1.52343,-3.45703 -4.36523,-5.21484 -2.8125,-1.78711 -6.47461,-1.78711 -2.60742,0 -4.83399,0.99609 -2.19726,0.9668 -3.80859,2.8418 -1.58203,1.875 -2.51953,4.80469 -0.9082,2.90039 -0.9082,6.5332 0,3.66211 0.9082,6.6211 0.9375,2.95898 2.60742,4.92187 1.69922,1.93359 3.86719,2.90039 2.19726,0.9668 4.80469,0.9668 3.33984,0 6.12304,-1.66992 2.8125,-1.66993 4.45313,-5.15625 1.66992,-3.48633 1.66992,-8.58399 z" />
      <path
         id="path4406"
         d="m 529.69727,144.18698 0,8.23242 q 0,1.64063 -0.32227,2.63672 -0.32227,0.9668 -1.20117,1.75781 -0.84961,0.79102 -2.19727,1.52344 -3.89648,2.10938 -7.5,3.07617 -3.60351,0.9668 -7.85156,0.9668 -4.95117,0 -9.02344,-1.52344 -4.07226,-1.52343 -6.94336,-4.42383 -2.87109,-2.90039 -4.42383,-7.03125 -1.52343,-4.13085 -1.52343,-9.22851 0,-5.00977 1.49414,-9.16992 1.49414,-4.16016 4.39453,-7.06055 2.90039,-2.90039 7.06055,-4.42383 4.16015,-1.55273 9.43359,-1.55273 4.33594,0 7.67578,1.17187 3.33984,1.14258 5.41992,2.90039 2.08008,1.75782 3.13477,3.72071 1.05469,1.96289 1.05469,3.48632 0,1.64063 -1.23047,2.8125 -1.20117,1.14258 -2.90039,1.14258 -0.9375,0 -1.81641,-0.43945 -0.84961,-0.43945 -1.43555,-1.23047 -1.61132,-2.51953 -2.72461,-3.80859 -1.11328,-1.28907 -3.01757,-2.16797 -1.875,-0.87891 -4.80469,-0.87891 -3.01758,0 -5.39063,1.05469 -2.37304,1.02539 -4.07226,3.01758 -1.66992,1.96289 -2.57813,4.83398 -0.8789,2.8711 -0.8789,6.35742 0,7.5586 3.45703,11.63086 3.48633,4.07227 9.69726,4.07227 3.01758,0 5.6543,-0.79102 2.66602,-0.79101 5.39063,-2.25586 l 0,-6.97265 -6.73829,0 q -2.43164,0 -3.6914,-0.73242 -1.23047,-0.73243 -1.23047,-2.49024 0,-1.43555 1.02539,-2.37305 1.05469,-0.9375 2.8418,-0.9375 l 9.87304,0 q 1.81641,0 3.07618,0.32227 1.25976,0.32227 2.02148,1.43555 0.79102,1.11328 0.79102,3.33984 z" />
      <path
         id="path4408"
         d="m 549.73633,143.27878 -3.04688,0 0,13.79883 q 0,2.72461 -1.20117,4.01367 -1.20117,1.28906 -3.13476,1.28906 -2.08008,0 -3.22266,-1.34766 -1.14258,-1.34765 -1.14258,-3.95507 l 0,-33.04688 q 0,-2.8125 1.25977,-4.07226 1.25976,-1.25977 4.07226,-1.25977 l 14.15039,0 q 2.92969,0 5.00977,0.26367 2.08008,0.23438 3.75,0.9961 2.02148,0.8496 3.57422,2.43164 1.55273,1.58203 2.34375,3.6914 0.82031,2.08008 0.82031,4.42383 0,4.80469 -2.72461,7.67578 -2.69531,2.8711 -8.20312,4.07227 2.31445,1.23047 4.42382,3.63281 2.10938,2.40234 3.75,5.12695 1.66993,2.69532 2.57813,4.89258 0.9375,2.16797 0.9375,2.98828 0,0.84961 -0.55664,1.69922 -0.52735,0.82031 -1.46485,1.28906 -0.9375,0.49805 -2.16796,0.49805 -1.46485,0 -2.46094,-0.70312 -0.9961,-0.67383 -1.72852,-1.72852 -0.70312,-1.05469 -1.93359,-3.10547 l -3.48633,-5.80078 q -1.875,-3.19336 -3.36914,-4.86328 -1.46484,-1.66992 -2.98828,-2.28516 -1.52344,-0.61523 -3.83789,-0.61523 z m 4.98047,-18.04688 -8.02735,0 0,11.80664 7.79297,0 q 3.13477,0 5.27344,-0.52734 2.13867,-0.55664 3.25195,-1.8457 1.14258,-1.31836 1.14258,-3.60352 0,-1.78711 -0.9082,-3.13476 -0.90821,-1.37696 -2.51953,-2.05079 -1.52344,-0.64453 -6.00586,-0.64453 z" />
      <path
         id="path4410"
         d="m 609.47266,125.40768 -19.59961,0 0,10.54688 18.04687,0 q 1.99219,0 2.95899,0.9082 0.99609,0.87891 0.99609,2.34375 0,1.46485 -0.9668,2.40235 -0.96679,0.9082 -2.98828,0.9082 l -18.04687,0 0,12.2168 20.27343,0 q 2.05079,0 3.07618,0.96679 1.05468,0.9375 1.05468,2.51953 0,1.52344 -1.05468,2.49024 -1.02539,0.9375 -3.07618,0.9375 l -23.64257,0 q -2.8418,0 -4.10157,-1.25977 -1.23047,-1.25976 -1.23047,-4.07226 l 0,-32.28516 q 0,-1.875 0.55665,-3.04687 0.55664,-1.20118 1.72851,-1.72852 1.20117,-0.55664 3.04688,-0.55664 l 22.96875,0 q 2.08007,0 3.07617,0.9375 1.02539,0.9082 1.02539,2.40234 0,1.52344 -1.02539,2.46094 -0.9961,0.9082 -3.07617,0.9082 z" />
      <path
         id="path4412"
         d="m 653.88672,148.75729 q 0,3.89649 -2.02149,7.00196 -1.99218,3.10547 -5.85937,4.86328 -3.86719,1.75781 -9.16992,1.75781 -6.35742,0 -10.48828,-2.40234 -2.92969,-1.72852 -4.77539,-4.59961 -1.81641,-2.90039 -1.81641,-5.625 0,-1.58203 1.08398,-2.69532 1.11328,-1.14257 2.8125,-1.14257 1.37696,0 2.31446,0.8789 0.96679,0.87891 1.64062,2.60742 0.82031,2.05079 1.75781,3.42774 0.9668,1.37695 2.69532,2.28516 1.72851,0.8789 4.54101,0.8789 3.86719,0 6.26953,-1.78711 2.43164,-1.8164 2.43164,-4.51172 0,-2.13867 -1.31836,-3.45703 -1.28906,-1.34765 -3.36914,-2.05078 -2.05078,-0.70312 -5.50781,-1.49414 -4.6289,-1.08398 -7.76367,-2.51953 -3.10547,-1.46484 -4.95117,-3.95508 -1.81641,-2.51953 -1.81641,-6.24023 0,-3.54493 1.9336,-6.29883 1.93359,-2.75391 5.5957,-4.21875 3.66211,-1.49414 8.61328,-1.49414 3.95508,0 6.82617,0.99609 2.90039,0.9668 4.80469,2.60742 1.9043,1.61133 2.7832,3.39844 0.87891,1.78711 0.87891,3.48633 0,1.55273 -1.11328,2.8125 -1.08399,1.23047 -2.72461,1.23047 -1.49414,0 -2.28516,-0.73242 -0.76172,-0.76172 -1.66992,-2.46094 -1.17188,-2.43164 -2.8125,-3.7793 -1.64063,-1.37695 -5.27344,-1.37695 -3.36914,0 -5.44922,1.49414 -2.05078,1.46484 -2.05078,3.54492 0,1.28906 0.70313,2.22656 0.70312,0.9375 1.93359,1.61133 1.23047,0.67383 2.49024,1.05469 1.25976,0.38086 4.16015,1.11328 3.63281,0.84961 6.5625,1.875 2.95899,1.02539 5.00977,2.49023 2.08008,1.46485 3.22265,3.72071 1.17188,2.22656 1.17188,5.47851 z" />
      <path
         id="path4414"
         d="m 693.96484,148.75729 q 0,3.89649 -2.02148,7.00196 -1.99219,3.10547 -5.85938,4.86328 -3.86718,1.75781 -9.16992,1.75781 -6.35742,0 -10.48828,-2.40234 -2.92969,-1.72852 -4.77539,-4.59961 -1.81641,-2.90039 -1.81641,-5.625 0,-1.58203 1.08399,-2.69532 1.11328,-1.14257 2.8125,-1.14257 1.37695,0 2.31445,0.8789 0.9668,0.87891 1.64063,2.60742 0.82031,2.05079 1.75781,3.42774 0.9668,1.37695 2.69531,2.28516 1.72852,0.8789 4.54102,0.8789 3.86718,0 6.26953,-1.78711 2.43164,-1.8164 2.43164,-4.51172 0,-2.13867 -1.31836,-3.45703 -1.28906,-1.34765 -3.36914,-2.05078 -2.05078,-0.70312 -5.50781,-1.49414 -4.62891,-1.08398 -7.76368,-2.51953 -3.10546,-1.46484 -4.95117,-3.95508 -1.8164,-2.51953 -1.8164,-6.24023 0,-3.54493 1.93359,-6.29883 1.93359,-2.75391 5.5957,-4.21875 3.66211,-1.49414 8.61328,-1.49414 3.95508,0 6.82618,0.99609 2.90039,0.9668 4.80468,2.60742 1.9043,1.61133 2.78321,3.39844 0.8789,1.78711 0.8789,3.48633 0,1.55273 -1.11328,2.8125 -1.08398,1.23047 -2.72461,1.23047 -1.49414,0 -2.28515,-0.73242 -0.76172,-0.76172 -1.66993,-2.46094 -1.17187,-2.43164 -2.8125,-3.7793 -1.64062,-1.37695 -5.27343,-1.37695 -3.36914,0 -5.44922,1.49414 -2.05078,1.46484 -2.05078,3.54492 0,1.28906 0.70312,2.22656 0.70313,0.9375 1.9336,1.61133 1.23046,0.67383 2.49023,1.05469 1.25977,0.38086 4.16016,1.11328 3.63281,0.84961 6.5625,1.875 2.95898,1.02539 5.00976,2.49023 2.08008,1.46485 3.22266,3.72071 1.17187,2.22656 1.17187,5.47851 z" />
    </g>
  </g>
</svg>
