<?xml version="1.0" encoding="UTF-8" standalone="no"?>
<svg
   xmlns:dc="http://purl.org/dc/elements/1.1/"
   xmlns:cc="http://creativecommons.org/ns#"
   xmlns:rdf="http://www.w3.org/1999/02/22-rdf-syntax-ns#"
   xmlns:svg="http://www.w3.org/2000/svg"
   xmlns="http://www.w3.org/2000/svg"
   version="1.1"
   viewBox="0 0 744.09448819 1052.3622047"
   width="210mm"
   height="210mm">
  <defs/>
  <metadata>
    <rdf:RDF>
      <cc:Work rdf:about="">
        <dc:format>image/svg+xml</dc:format>
        <dc:type rdf:resource="http://purl.org/dc/dcmitype/StillImage" />
      </cc:Work>
    </rdf:RDF>
  </metadata>
  <g
     id="layer1">
    <g
       id="g4351">
      <path
         d="M 61.212891 30.019531 C 43.852517 30.435757 30 44.535903 30 62 L 30 95.416016 L 30.466797 95.416016 L 76.767578 30.019531 L 61.212891 30.019531 z "
         style="fill:#000000;stroke-width:0.3" />
      <rect
         style="fill:#ffff00;stroke-width:0.3"
         transform="matrix(1,0,0.57783301,-0.81615502,0,0)"
         y="-116.90798"
         x="97.664032"
         height="80.126205"
         width="53.131592"/>
      <rect
         style="fill:#000000;stroke-width:0.3"
         transform="matrix(1,0,0.57783301,-0.81615502,0,0)"
         y="-116.90798"
         x="150.79237"
         height="80.126205"
         width="53.131592"/>
      <rect
         style="fill:#ffff00;stroke-width:0.3"
         transform="matrix(1,0,0.57783301,-0.81615502,0,0)"
         y="-116.90803"
         x="203.78802"
         height="80.126205"
         width="53.131592"/>
      <rect
         style="fill:#000000;stroke-width:0.3"
         transform="matrix(1,0,0.57783301,-0.81615502,0,0)"
         y="-116.90289"
         x="256.92181"
         height="80.126205"
         width="53.131592"/>
      <rect
         style="fill:#ffff00;stroke-width:0.3"
         transform="matrix(1,0,0.57783301,-0.81615502,0,0)"
         y="-116.87698"
         x="309.888"
         height="80.126205"
         width="53.131592"/>
      <rect
         style="fill:#000000;stroke-width:0.3"
         transform="matrix(1,0,0.57783301,-0.81615502,0,0)"
         y="-116.87"
         x="363.06042"
         height="80.126205"
         width="53.131592"/>
      <rect
         style="fill:#ffff00;stroke-width:0.3"
         transform="matrix(1,0,0.57783301,-0.81615502,0,0)"
         y="-116.86964"
         x="415.83508"
         height="80.126205"
         width="53.131592"/>
      <rect
         style="fill:#000000;stroke-width:0.3"
         transform="matrix(1,0,0.57783301,-0.81615502,0,0)"
         y="-116.86964"
         x="468.96341"
         height="80.126205"
         width="53.131592"/>
      <rect
         style="fill:#ffff00;stroke-width:0.3"
         transform="matrix(1,0,0.57783301,-0.81615502,0,0)"
         y="-116.86967"
         x="521.95911"
         height="80.126205"
         width="53.131592"/>
      <rect
         style="fill:#000000;stroke-width:0.3"
         transform="matrix(1,0,0.57783301,-0.81615502,0,0)"
         y="-116.86455"
         x="575.0929"
         height="80.126205"
         width="53.131592"/>
      <rect
         style="fill:#ffff00;stroke-width:0.3"
         transform="matrix(1,0,0.57783301,-0.81615502,0,0)"
         y="-116.83864"
         x="628.05908"
         height="80.126205"
         width="53.131592"/>
      <path
         d="M 660.03711 30 L 613.74609 95.384766 L 666.87695 95.384766 L 703.87305 43.130859 C 698.0637 35.162815 688.65914 30 678 30 L 660.03711 30 z "
         style="fill:#000000;stroke-width:0.3" />
      <path
         d="M 703.69336 42.878906 L 666.52148 95.382812 L 710 95.382812 L 710 62 C 710 54.819672 707.65727 48.206685 703.69336 42.878906 z "
         style="fill:#ffff00;stroke-width:0.3" />
      <path
         d="M 666.0918 184.50195 L 703.51172 237.35547 C 707.58365 231.98734 710 225.28736 710 218 L 710 184.50195 L 666.0918 184.50195 z "
         style="fill:#000000;stroke-width:0.3" />
      <path
         d="M 613.31641 184.50195 L 659.61719 249.89648 L 680.48047 249.89648 C 690.00388 249.17231 698.33591 244.32338 703.69727 237.11328 L 666.44922 184.50195 L 613.31641 184.50195 z "
         style="fill:#ffff00;stroke-width:0.3" />
      <rect
         width="53.131592"
         height="80.126205"
         x="-482.6944"
         y="-306.18839"
         transform="matrix(-1,0,-0.57783301,-0.81615502,0,0)"
         style="fill:#000000;stroke-width:0.3" />
      <rect
         width="53.131592"
         height="80.126205"
         x="-429.69876"
         y="-306.18842"
         transform="matrix(-1,0,-0.57783301,-0.81615502,0,0)"
         style="fill:#ffff00;stroke-width:0.3" />
      <rect
         width="53.131592"
         height="80.126205"
         x="-376.56497"
         y="-306.18329"
         transform="matrix(-1,0,-0.57783301,-0.81615502,0,0)"
         style="fill:#000000;stroke-width:0.3" />
      <rect
         width="53.131592"
         height="80.126205"
         x="-323.59879"
         y="-306.15738"
         transform="matrix(-1,0,-0.57783301,-0.81615502,0,0)"
         style="fill:#ffff00;stroke-width:0.3" />
      <rect
         width="53.131592"
         height="80.126205"
         x="-270.42636"
         y="-306.15039"
         transform="matrix(-1,0,-0.57783301,-0.81615502,0,0)"
         style="fill:#000000;stroke-width:0.3" />
      <rect
         width="53.131592"
         height="80.126205"
         x="-217.65169"
         y="-306.15002"
         transform="matrix(-1,0,-0.57783301,-0.81615502,0,0)"
         style="fill:#ffff00;stroke-width:0.3" />
      <rect
         width="53.131592"
         height="80.126205"
         x="-164.52336"
         y="-306.15002"
         transform="matrix(-1,0,-0.57783301,-0.81615502,0,0)"
         style="fill:#000000;stroke-width:0.3" />
      <rect
         width="53.131592"
         height="80.126205"
         x="-111.52771"
         y="-306.15005"
         transform="matrix(-1,0,-0.57783301,-0.81615502,0,0)"
         style="fill:#ffff00;stroke-width:0.3" />
      <rect
         width="53.131592"
         height="80.126205"
         x="-58.393929"
         y="-306.14493"
         transform="matrix(-1,0,-0.57783301,-0.81615502,0,0)"
         style="fill:#000000;stroke-width:0.3" />
      <rect
         width="53.131592"
         height="80.126205"
         x="-5.4277191"
         y="-306.11902"
         transform="matrix(-1,0,-0.57783301,-0.81615502,0,0)"
         style="fill:#ffff00;stroke-width:0.3" />
      <rect
         width="53.131592"
         height="80.126205"
         x="47.79044"
         y="-306.15039"
         transform="matrix(-1,0,-0.57783301,-0.81615502,0,0)"
         style="fill:#000000;stroke-width:0.3" />
      <path
         d="M 30 184.4707 L 30 218 C 30 234.75219 42.74572 248.41152 59.107422 249.86523 L 76.337891 249.86523 L 30.039062 184.4707 L 30 184.4707 z "
         style="fill:#ffff00;stroke-width:0.3" />
      <rect
         ry="32"
         rx="32"
         y="30"
         x="30"
         height="220"
         width="680"
         style="fill:none;fill-opacity:1;stroke:#000000;stroke-width:1;stroke-opacity:1" />
      <rect
         style="fill:none;fill-opacity:1;stroke:#000000;stroke-width:1;stroke-opacity:1"
         width="680"
         height="220"
         x="30"
         y="30"
         rx="32"
         ry="32" />
      <path
         sodipodi:nodetypes="cc"
         inkscape:connector-curvature="0"
         id="path4347"
         d="m 29.285714,95.576489 680.357146,0"
         style="fill:none;stroke:#000000;stroke-width:1px;stroke-opacity:1" />
      <path
         style="fill:none;stroke:#000000;stroke-width:1px;stroke-opacity:1"
         d="m 29.285714,184.50506 680.357146,0"
         id="path4349"
         inkscape:connector-curvature="0"
         sodipodi:nodetypes="cc" />
    </g>
    <text
       xml:space="preserve"
       style="font-size:60px;line-height:125%;font-family:'Arial Rounded MT Bold,Arial,Verdana,sans-serif';fill:#000000;fill-opacity:1;stroke:none;stroke-width:1px;stroke-opacity:1"
       x="45"
       y="161.6479"
       id="text4385"><tspan
         id="tspan4387"
         x="45"
         y="161.6479">WORK</tspan></text>
    <text
       xml:space="preserve"
       style="font-size:60px;line-height:125%;font-family:'Arial Rounded MT Bold,Arial,Verdana,sans-serif';fill:#000000;fill-opacity:1;stroke:none;stroke-width:1px;stroke-opacity:1"
       x="269.14285"
       y="161.64792"
       id="text4389"><tspan
         id="tspan4391"
         x="269.14285"
         y="161.64792">in</tspan></text>
    <text
       xml:space="preserve"
       style="font-size:60px;line-height:125%;font-family:'Arial Rounded MT Bold,Arial,Verdana,sans-serif';fill:#000000;fill-opacity:1;stroke:none;stroke-width:1px;stroke-opacity:1"
       x="355"
       y="161.64792"
       id="text4393"><tspan
         id="tspan4395"
         x="355"
         y="161.64792">PROGRESS</tspan></text>
  </g>
</svg>
